<svg xmlns="http://www.w3.org/2000/svg" viewBox="-489.9 -1367.3 4030.9 1912.8" role="img" aria-label="remit">
  <style>path{fill:#141417}@media (prefers-color-scheme:dark){path{fill:#ededf0}}</style>
  <g transform="scale(1,-1)"><path d="M118 0V451.11328125H43.556640625V600.0H196.443359375V483.88916015625H238.443359375Q262.610107421875 544.22216796875 314.8045654296875 575.333251953125Q366.9990234375 606.4443359375 434.1103515625 606.4443359375H484.33251953125V477.5576171875H427.277099609375Q345.498779296875 477.5576171875 305.0260009765625 430.723876953125Q264.55322265625 383.89013671875 264.55322265625 306.22265625V0.0Z M842.77783203125 -12.0Q746.500244140625 -12.0 675.44482421875 26.5Q604.389404296875 65.0 565.8616943359375 135.6944580078125Q527.333984375 206.388916015625 527.333984375 302.0Q527.333984375 397.611083984375 565.2506103515625 467.111083984375Q603.167236328125 536.611083984375 672.9171142578125 574.3055419921875Q742.6669921875 612.0 836.944580078125 612.0Q928.66650390625 612.0 994.944091796875 576.27783203125Q1061.2216796875 540.5556640625 1096.94384765625 474.500244140625Q1132.666015625 408.44482421875 1132.666015625 316.945068359375V264.556640625H670.498291015625Q678.77587890625 189.055419921875 723.3597412109375 148.4713134765625Q767.943603515625 107.88720703125 841.77783203125 107.88720703125Q897.00048828125 107.88720703125 931.5009765625 128.2486572265625Q966.00146484375 148.610107421875 979.946044921875 189.99951171875H1129.721435546875Q1109.165771484375 94.721923828125 1033.4715576171875 41.3609619140625Q957.77734375 -12.0 842.77783203125 -12.0ZM674.276123046875 365.888671875H989.723876953125Q981.501708984375 427.945068359375 942.1956787109375 460.4178466796875Q902.8896484375 492.890625 837.166748046875 492.890625Q772.054931640625 492.890625 729.8599853515625 460.1123046875Q687.6650390625 427.333984375 674.276123046875 365.888671875Z M1260.4443359375 0.0V451.11328125H1186.0009765625V600.0H1338.8876953125V503.88916015625H1383.9990234375Q1414.10986328125 555.33349609375 1464.6375732421875 583.166748046875Q1515.165283203125 611.0 1588.6650390625 611.0Q1660.498291015625 611.0 1711.220458984375 584.7498779296875Q1761.942626953125 558.499755859375 1792.77587890625 506.054931640625H1796.386962890625Q1863.497802734375 611.0 2001.942626953125 611.0Q2116.66455078125 611.0 2182.664306640625 544.5279541015625Q2248.6640625 478.055908203125 2248.6640625 364.00048828125V0.0H2099.66650390625V337.33447265625Q2099.66650390625 478.89111328125 1964.165283203125 478.89111328125Q1829.052978515625 478.89111328125 1829.052978515625 337.33447265625V0.0H1680.055419921875V337.33447265625Q1680.055419921875 478.89111328125 1543.33203125 478.89111328125Q1477.164794921875 478.89111328125 1443.3033447265625 443.4185791015625Q1409.44189453125 407.946044921875 1409.44189453125 337.33447265625V0.0Z M2371.66748046875 0.0V600.0H2520.6650390625V0.0ZM2446.274098115809 666.167724609375Q2411.388916015625 666.167724609375 2386.8614501953125 690.5873520795037Q2362.333984375 715.0069795496323 2362.333984375 749.8921616498162Q2362.333984375 784.77734375 2386.753611845129 809.3048095703125Q2411.1732393152574 833.832275390625 2446.058421415441 833.832275390625Q2480.943603515625 833.832275390625 2505.4710693359375 809.4126479204963Q2529.99853515625 784.9930204503677 2529.99853515625 750.1078383501838Q2529.99853515625 715.22265625 2505.578907686121 690.6951904296875Q2481.1592802159926 666.167724609375 2446.274098115809 666.167724609375Z M2825.276611328125 0.0Q2766.166259765625 0.0 2733.5 30.05517578125Q2700.833740234375 60.1103515625 2700.833740234375 121.44287109375V484.001953125H2595.0V600H2702.44482421875V780.0H2848.22021484375V600.0H2992.66552734375V484.001953125H2849.831298828125V116.77587890625H3007.443359375V0.0Z"/></g>
</svg>